%TF.GenerationSoftware,KiCad,Pcbnew,9.0.0*%
%TF.CreationDate,2025-03-22T17:47:37+01:00*%
%TF.ProjectId,FanControles,46616e43-6f6e-4747-926f-6c65732e6b69,rev?*%
%TF.SameCoordinates,Original*%
%TF.FileFunction,Copper,L1,Top*%
%TF.FilePolarity,Positive*%
%FSLAX46Y46*%
G04 Gerber Fmt 4.6, Leading zero omitted, Abs format (unit mm)*
G04 Created by KiCad (PCBNEW 9.0.0) date 2025-03-22 17:47:37*
%MOMM*%
%LPD*%
G01*
G04 APERTURE LIST*
G04 Aperture macros list*
%AMRoundRect*
0 Rectangle with rounded corners*
0 $1 Rounding radius*
0 $2 $3 $4 $5 $6 $7 $8 $9 X,Y pos of 4 corners*
0 Add a 4 corners polygon primitive as box body*
4,1,4,$2,$3,$4,$5,$6,$7,$8,$9,$2,$3,0*
0 Add four circle primitives for the rounded corners*
1,1,$1+$1,$2,$3*
1,1,$1+$1,$4,$5*
1,1,$1+$1,$6,$7*
1,1,$1+$1,$8,$9*
0 Add four rect primitives between the rounded corners*
20,1,$1+$1,$2,$3,$4,$5,0*
20,1,$1+$1,$4,$5,$6,$7,0*
20,1,$1+$1,$6,$7,$8,$9,0*
20,1,$1+$1,$8,$9,$2,$3,0*%
G04 Aperture macros list end*
%TA.AperFunction,ComponentPad*%
%ADD10RoundRect,0.250000X0.750000X-0.600000X0.750000X0.600000X-0.750000X0.600000X-0.750000X-0.600000X0*%
%TD*%
%TA.AperFunction,ComponentPad*%
%ADD11O,2.000000X1.700000*%
%TD*%
%TA.AperFunction,SMDPad,CuDef*%
%ADD12R,1.050000X0.600000*%
%TD*%
%TA.AperFunction,ComponentPad*%
%ADD13RoundRect,0.250000X-0.750000X0.600000X-0.750000X-0.600000X0.750000X-0.600000X0.750000X0.600000X0*%
%TD*%
%TA.AperFunction,ComponentPad*%
%ADD14C,1.440000*%
%TD*%
%TA.AperFunction,ViaPad*%
%ADD15C,5.000000*%
%TD*%
%TA.AperFunction,Conductor*%
%ADD16C,0.200000*%
%TD*%
G04 APERTURE END LIST*
D10*
%TO.P,P1,1,1*%
%TO.N,/+24v*%
X151000000Y-91000000D03*
D11*
%TO.P,P1,2,2*%
%TO.N,/Fan*%
X151000000Y-88500000D03*
%TD*%
D10*
%TO.P,P3,1,1*%
%TO.N,/+24v*%
X151050000Y-82500000D03*
D11*
%TO.P,P3,2,2*%
%TO.N,Net-(Q1-G)*%
X151050000Y-80000000D03*
%TD*%
D12*
%TO.P,Q1,1,G*%
%TO.N,Net-(Q1-G)*%
X141462500Y-91500000D03*
%TO.P,Q1,2,S*%
%TO.N,GND*%
X141462500Y-93400000D03*
%TO.P,Q1,3,D*%
%TO.N,/Fan*%
X143662500Y-92450000D03*
%TD*%
D13*
%TO.P,P2,1,1*%
%TO.N,GND*%
X145000000Y-80000000D03*
D11*
%TO.P,P2,2,2*%
%TO.N,/+24v*%
X145000000Y-82500000D03*
%TD*%
D14*
%TO.P,RV1,1,1*%
%TO.N,GND*%
X141500000Y-89225000D03*
%TO.P,RV1,2,2*%
X144040000Y-86685000D03*
%TO.P,RV1,3,3*%
%TO.N,Net-(Q1-G)*%
X146580000Y-89225000D03*
%TD*%
D15*
%TO.N,*%
X137000000Y-88500000D03*
%TD*%
D16*
%TO.N,/+24v*%
X151050000Y-82500000D02*
X151050000Y-82450000D01*
X151000000Y-91000000D02*
X152500000Y-91000000D01*
X149500000Y-78000000D02*
X145000000Y-82500000D01*
X152500000Y-91000000D02*
X154000000Y-89500000D01*
X152500000Y-82500000D02*
X151050000Y-82500000D01*
X151050000Y-82450000D02*
X153000000Y-80500000D01*
X154000000Y-89500000D02*
X154000000Y-84000000D01*
X154000000Y-84000000D02*
X152500000Y-82500000D01*
X153000000Y-78000000D02*
X149500000Y-78000000D01*
X153000000Y-80500000D02*
X153000000Y-78000000D01*
%TO.N,/Fan*%
X147050000Y-92450000D02*
X151000000Y-88500000D01*
X143500000Y-92450000D02*
X147050000Y-92450000D01*
%TO.N,GND*%
X140000000Y-90500000D02*
X140000000Y-92500000D01*
X142500000Y-81000000D02*
X142500000Y-84670000D01*
X145000000Y-80000000D02*
X143500000Y-80000000D01*
X141275000Y-89225000D02*
X140000000Y-90500000D01*
X140000000Y-92500000D02*
X140900000Y-93400000D01*
X141975000Y-89225000D02*
X141275000Y-89225000D01*
X143500000Y-80000000D02*
X142500000Y-81000000D01*
X140900000Y-93400000D02*
X141625000Y-93400000D01*
X144515000Y-86685000D02*
X141975000Y-89225000D01*
X142500000Y-84670000D02*
X144515000Y-86685000D01*
%TO.N,Net-(Q1-G)*%
X142500000Y-91500000D02*
X144775000Y-89225000D01*
X141625000Y-91500000D02*
X142500000Y-91500000D01*
X147055000Y-83995000D02*
X147055000Y-89225000D01*
X151050000Y-80000000D02*
X147055000Y-83995000D01*
X147055000Y-89225000D02*
X147055000Y-89845000D01*
X144775000Y-89225000D02*
X147055000Y-89225000D01*
%TD*%
M02*
