%TF.GenerationSoftware,KiCad,Pcbnew,9.0.0*%
%TF.CreationDate,2025-03-22T17:47:38+01:00*%
%TF.ProjectId,FanControles,46616e43-6f6e-4747-926f-6c65732e6b69,rev?*%
%TF.SameCoordinates,Original*%
%TF.FileFunction,Profile,NP*%
%FSLAX46Y46*%
G04 Gerber Fmt 4.6, Leading zero omitted, Abs format (unit mm)*
G04 Created by KiCad (PCBNEW 9.0.0) date 2025-03-22 17:47:38*
%MOMM*%
%LPD*%
G01*
G04 APERTURE LIST*
%TA.AperFunction,Profile*%
%ADD10C,0.050000*%
%TD*%
%ADD11C,0.150000*%
G04 APERTURE END LIST*
D10*
X162500000Y-94500000D02*
X133500000Y-94500000D01*
X133500000Y-76500000D02*
X162500000Y-76500000D01*
X133500000Y-94500000D02*
X133500000Y-76500000D01*
X162500000Y-76500000D02*
X162500000Y-94500000D01*
D11*
X147238095Y-72400057D02*
X147285714Y-72352438D01*
X147285714Y-72352438D02*
X147380952Y-72304819D01*
X147380952Y-72304819D02*
X147619047Y-72304819D01*
X147619047Y-72304819D02*
X147714285Y-72352438D01*
X147714285Y-72352438D02*
X147761904Y-72400057D01*
X147761904Y-72400057D02*
X147809523Y-72495295D01*
X147809523Y-72495295D02*
X147809523Y-72590533D01*
X147809523Y-72590533D02*
X147761904Y-72733390D01*
X147761904Y-72733390D02*
X147190476Y-73304819D01*
X147190476Y-73304819D02*
X147809523Y-73304819D01*
X148285714Y-73304819D02*
X148476190Y-73304819D01*
X148476190Y-73304819D02*
X148571428Y-73257200D01*
X148571428Y-73257200D02*
X148619047Y-73209580D01*
X148619047Y-73209580D02*
X148714285Y-73066723D01*
X148714285Y-73066723D02*
X148761904Y-72876247D01*
X148761904Y-72876247D02*
X148761904Y-72495295D01*
X148761904Y-72495295D02*
X148714285Y-72400057D01*
X148714285Y-72400057D02*
X148666666Y-72352438D01*
X148666666Y-72352438D02*
X148571428Y-72304819D01*
X148571428Y-72304819D02*
X148380952Y-72304819D01*
X148380952Y-72304819D02*
X148285714Y-72352438D01*
X148285714Y-72352438D02*
X148238095Y-72400057D01*
X148238095Y-72400057D02*
X148190476Y-72495295D01*
X148190476Y-72495295D02*
X148190476Y-72733390D01*
X148190476Y-72733390D02*
X148238095Y-72828628D01*
X148238095Y-72828628D02*
X148285714Y-72876247D01*
X148285714Y-72876247D02*
X148380952Y-72923866D01*
X148380952Y-72923866D02*
X148571428Y-72923866D01*
X148571428Y-72923866D02*
X148666666Y-72876247D01*
X148666666Y-72876247D02*
X148714285Y-72828628D01*
X148714285Y-72828628D02*
X148761904Y-72733390D01*
D10*
X162500000Y-76000000D02*
X162500000Y-73413580D01*
X133500000Y-73413580D02*
X133500000Y-76000000D01*
X162500000Y-74000000D02*
X133500000Y-74000000D01*
X162500000Y-74000000D02*
X133500000Y-74000000D01*
X162500000Y-74000000D02*
X161373496Y-74586421D01*
X162500000Y-74000000D02*
X161373496Y-73413579D01*
X133500000Y-74000000D02*
X134626504Y-73413579D01*
X133500000Y-74000000D02*
X134626504Y-74586421D01*
X162500000Y-74000000D02*
X133500000Y-74000000D01*
X162500000Y-74000000D02*
X133500000Y-74000000D01*
X162500000Y-74000000D02*
X161373496Y-74586421D01*
X162500000Y-74000000D02*
X161373496Y-73413579D01*
X133500000Y-74000000D02*
X134626504Y-73413579D01*
X133500000Y-74000000D02*
X134626504Y-74586421D01*
D11*
X165804819Y-85690476D02*
X165804819Y-86261904D01*
X165804819Y-85976190D02*
X164804819Y-85976190D01*
X164804819Y-85976190D02*
X164947676Y-86071428D01*
X164947676Y-86071428D02*
X165042914Y-86166666D01*
X165042914Y-86166666D02*
X165090533Y-86261904D01*
X165233390Y-85119047D02*
X165185771Y-85214285D01*
X165185771Y-85214285D02*
X165138152Y-85261904D01*
X165138152Y-85261904D02*
X165042914Y-85309523D01*
X165042914Y-85309523D02*
X164995295Y-85309523D01*
X164995295Y-85309523D02*
X164900057Y-85261904D01*
X164900057Y-85261904D02*
X164852438Y-85214285D01*
X164852438Y-85214285D02*
X164804819Y-85119047D01*
X164804819Y-85119047D02*
X164804819Y-84928571D01*
X164804819Y-84928571D02*
X164852438Y-84833333D01*
X164852438Y-84833333D02*
X164900057Y-84785714D01*
X164900057Y-84785714D02*
X164995295Y-84738095D01*
X164995295Y-84738095D02*
X165042914Y-84738095D01*
X165042914Y-84738095D02*
X165138152Y-84785714D01*
X165138152Y-84785714D02*
X165185771Y-84833333D01*
X165185771Y-84833333D02*
X165233390Y-84928571D01*
X165233390Y-84928571D02*
X165233390Y-85119047D01*
X165233390Y-85119047D02*
X165281009Y-85214285D01*
X165281009Y-85214285D02*
X165328628Y-85261904D01*
X165328628Y-85261904D02*
X165423866Y-85309523D01*
X165423866Y-85309523D02*
X165614342Y-85309523D01*
X165614342Y-85309523D02*
X165709580Y-85261904D01*
X165709580Y-85261904D02*
X165757200Y-85214285D01*
X165757200Y-85214285D02*
X165804819Y-85119047D01*
X165804819Y-85119047D02*
X165804819Y-84928571D01*
X165804819Y-84928571D02*
X165757200Y-84833333D01*
X165757200Y-84833333D02*
X165709580Y-84785714D01*
X165709580Y-84785714D02*
X165614342Y-84738095D01*
X165614342Y-84738095D02*
X165423866Y-84738095D01*
X165423866Y-84738095D02*
X165328628Y-84785714D01*
X165328628Y-84785714D02*
X165281009Y-84833333D01*
X165281009Y-84833333D02*
X165233390Y-84928571D01*
D10*
X163000000Y-94500000D02*
X167086420Y-94500000D01*
X167086420Y-76500000D02*
X163000000Y-76500000D01*
X166500000Y-94500000D02*
X166500000Y-76500000D01*
X166500000Y-94500000D02*
X166500000Y-76500000D01*
X166500000Y-94500000D02*
X165913579Y-93373496D01*
X166500000Y-94500000D02*
X167086421Y-93373496D01*
X166500000Y-76500000D02*
X167086421Y-77626504D01*
X166500000Y-76500000D02*
X165913579Y-77626504D01*
X166500000Y-94500000D02*
X166500000Y-76500000D01*
X166500000Y-94500000D02*
X166500000Y-76500000D01*
X166500000Y-94500000D02*
X165913579Y-93373496D01*
X166500000Y-94500000D02*
X167086421Y-93373496D01*
X166500000Y-76500000D02*
X167086421Y-77626504D01*
X166500000Y-76500000D02*
X165913579Y-77626504D01*
M02*
