%TF.GenerationSoftware,KiCad,Pcbnew,9.0.0*%
%TF.CreationDate,2025-03-22T17:47:38+01:00*%
%TF.ProjectId,FanControles,46616e43-6f6e-4747-926f-6c65732e6b69,rev?*%
%TF.SameCoordinates,Original*%
%TF.FileFunction,Legend,Top*%
%TF.FilePolarity,Positive*%
%FSLAX46Y46*%
G04 Gerber Fmt 4.6, Leading zero omitted, Abs format (unit mm)*
G04 Created by KiCad (PCBNEW 9.0.0) date 2025-03-22 17:47:38*
%MOMM*%
%LPD*%
G01*
G04 APERTURE LIST*
%ADD10C,0.150000*%
%ADD11C,0.254000*%
%ADD12C,0.120000*%
%ADD13C,0.200000*%
G04 APERTURE END LIST*
D10*
X149404819Y-89988094D02*
X148404819Y-89988094D01*
X148404819Y-89988094D02*
X148404819Y-89607142D01*
X148404819Y-89607142D02*
X148452438Y-89511904D01*
X148452438Y-89511904D02*
X148500057Y-89464285D01*
X148500057Y-89464285D02*
X148595295Y-89416666D01*
X148595295Y-89416666D02*
X148738152Y-89416666D01*
X148738152Y-89416666D02*
X148833390Y-89464285D01*
X148833390Y-89464285D02*
X148881009Y-89511904D01*
X148881009Y-89511904D02*
X148928628Y-89607142D01*
X148928628Y-89607142D02*
X148928628Y-89988094D01*
X149404819Y-88464285D02*
X149404819Y-89035713D01*
X149404819Y-88749999D02*
X148404819Y-88749999D01*
X148404819Y-88749999D02*
X148547676Y-88845237D01*
X148547676Y-88845237D02*
X148642914Y-88940475D01*
X148642914Y-88940475D02*
X148690533Y-89035713D01*
X161050057Y-92607142D02*
X161002438Y-92559523D01*
X161002438Y-92559523D02*
X160954819Y-92464285D01*
X160954819Y-92464285D02*
X160954819Y-92226190D01*
X160954819Y-92226190D02*
X161002438Y-92130952D01*
X161002438Y-92130952D02*
X161050057Y-92083333D01*
X161050057Y-92083333D02*
X161145295Y-92035714D01*
X161145295Y-92035714D02*
X161240533Y-92035714D01*
X161240533Y-92035714D02*
X161383390Y-92083333D01*
X161383390Y-92083333D02*
X161954819Y-92654761D01*
X161954819Y-92654761D02*
X161954819Y-92035714D01*
X161288152Y-91178571D02*
X161954819Y-91178571D01*
X160907200Y-91416666D02*
X161621485Y-91654761D01*
X161621485Y-91654761D02*
X161621485Y-91035714D01*
X161288152Y-90749999D02*
X161954819Y-90511904D01*
X161954819Y-90511904D02*
X161288152Y-90273809D01*
X161431009Y-88797618D02*
X161431009Y-89130951D01*
X161954819Y-89130951D02*
X160954819Y-89130951D01*
X160954819Y-89130951D02*
X160954819Y-88654761D01*
X161954819Y-87845237D02*
X161431009Y-87845237D01*
X161431009Y-87845237D02*
X161335771Y-87892856D01*
X161335771Y-87892856D02*
X161288152Y-87988094D01*
X161288152Y-87988094D02*
X161288152Y-88178570D01*
X161288152Y-88178570D02*
X161335771Y-88273808D01*
X161907200Y-87845237D02*
X161954819Y-87940475D01*
X161954819Y-87940475D02*
X161954819Y-88178570D01*
X161954819Y-88178570D02*
X161907200Y-88273808D01*
X161907200Y-88273808D02*
X161811961Y-88321427D01*
X161811961Y-88321427D02*
X161716723Y-88321427D01*
X161716723Y-88321427D02*
X161621485Y-88273808D01*
X161621485Y-88273808D02*
X161573866Y-88178570D01*
X161573866Y-88178570D02*
X161573866Y-87940475D01*
X161573866Y-87940475D02*
X161526247Y-87845237D01*
X161288152Y-87369046D02*
X161954819Y-87369046D01*
X161383390Y-87369046D02*
X161335771Y-87321427D01*
X161335771Y-87321427D02*
X161288152Y-87226189D01*
X161288152Y-87226189D02*
X161288152Y-87083332D01*
X161288152Y-87083332D02*
X161335771Y-86988094D01*
X161335771Y-86988094D02*
X161431009Y-86940475D01*
X161431009Y-86940475D02*
X161954819Y-86940475D01*
X149954819Y-81988094D02*
X148954819Y-81988094D01*
X148954819Y-81988094D02*
X148954819Y-81607142D01*
X148954819Y-81607142D02*
X149002438Y-81511904D01*
X149002438Y-81511904D02*
X149050057Y-81464285D01*
X149050057Y-81464285D02*
X149145295Y-81416666D01*
X149145295Y-81416666D02*
X149288152Y-81416666D01*
X149288152Y-81416666D02*
X149383390Y-81464285D01*
X149383390Y-81464285D02*
X149431009Y-81511904D01*
X149431009Y-81511904D02*
X149478628Y-81607142D01*
X149478628Y-81607142D02*
X149478628Y-81988094D01*
X148954819Y-81083332D02*
X148954819Y-80464285D01*
X148954819Y-80464285D02*
X149335771Y-80797618D01*
X149335771Y-80797618D02*
X149335771Y-80654761D01*
X149335771Y-80654761D02*
X149383390Y-80559523D01*
X149383390Y-80559523D02*
X149431009Y-80511904D01*
X149431009Y-80511904D02*
X149526247Y-80464285D01*
X149526247Y-80464285D02*
X149764342Y-80464285D01*
X149764342Y-80464285D02*
X149859580Y-80511904D01*
X149859580Y-80511904D02*
X149907200Y-80559523D01*
X149907200Y-80559523D02*
X149954819Y-80654761D01*
X149954819Y-80654761D02*
X149954819Y-80940475D01*
X149954819Y-80940475D02*
X149907200Y-81035713D01*
X149907200Y-81035713D02*
X149859580Y-81083332D01*
X161954819Y-84357143D02*
X161954819Y-84928571D01*
X161954819Y-84642857D02*
X160954819Y-84642857D01*
X160954819Y-84642857D02*
X161097676Y-84738095D01*
X161097676Y-84738095D02*
X161192914Y-84833333D01*
X161192914Y-84833333D02*
X161240533Y-84928571D01*
X160954819Y-83738095D02*
X160954819Y-83642857D01*
X160954819Y-83642857D02*
X161002438Y-83547619D01*
X161002438Y-83547619D02*
X161050057Y-83500000D01*
X161050057Y-83500000D02*
X161145295Y-83452381D01*
X161145295Y-83452381D02*
X161335771Y-83404762D01*
X161335771Y-83404762D02*
X161573866Y-83404762D01*
X161573866Y-83404762D02*
X161764342Y-83452381D01*
X161764342Y-83452381D02*
X161859580Y-83500000D01*
X161859580Y-83500000D02*
X161907200Y-83547619D01*
X161907200Y-83547619D02*
X161954819Y-83642857D01*
X161954819Y-83642857D02*
X161954819Y-83738095D01*
X161954819Y-83738095D02*
X161907200Y-83833333D01*
X161907200Y-83833333D02*
X161859580Y-83880952D01*
X161859580Y-83880952D02*
X161764342Y-83928571D01*
X161764342Y-83928571D02*
X161573866Y-83976190D01*
X161573866Y-83976190D02*
X161335771Y-83976190D01*
X161335771Y-83976190D02*
X161145295Y-83928571D01*
X161145295Y-83928571D02*
X161050057Y-83880952D01*
X161050057Y-83880952D02*
X161002438Y-83833333D01*
X161002438Y-83833333D02*
X160954819Y-83738095D01*
X160954819Y-82785714D02*
X160954819Y-82690476D01*
X160954819Y-82690476D02*
X161002438Y-82595238D01*
X161002438Y-82595238D02*
X161050057Y-82547619D01*
X161050057Y-82547619D02*
X161145295Y-82500000D01*
X161145295Y-82500000D02*
X161335771Y-82452381D01*
X161335771Y-82452381D02*
X161573866Y-82452381D01*
X161573866Y-82452381D02*
X161764342Y-82500000D01*
X161764342Y-82500000D02*
X161859580Y-82547619D01*
X161859580Y-82547619D02*
X161907200Y-82595238D01*
X161907200Y-82595238D02*
X161954819Y-82690476D01*
X161954819Y-82690476D02*
X161954819Y-82785714D01*
X161954819Y-82785714D02*
X161907200Y-82880952D01*
X161907200Y-82880952D02*
X161859580Y-82928571D01*
X161859580Y-82928571D02*
X161764342Y-82976190D01*
X161764342Y-82976190D02*
X161573866Y-83023809D01*
X161573866Y-83023809D02*
X161335771Y-83023809D01*
X161335771Y-83023809D02*
X161145295Y-82976190D01*
X161145295Y-82976190D02*
X161050057Y-82928571D01*
X161050057Y-82928571D02*
X161002438Y-82880952D01*
X161002438Y-82880952D02*
X160954819Y-82785714D01*
X161954819Y-82023809D02*
X160954819Y-82023809D01*
X161573866Y-81928571D02*
X161954819Y-81642857D01*
X161288152Y-81642857D02*
X161669104Y-82023809D01*
X161954819Y-80452380D02*
X160954819Y-80452380D01*
X160954819Y-80452380D02*
X161954819Y-79880952D01*
X161954819Y-79880952D02*
X160954819Y-79880952D01*
X160954819Y-79547618D02*
X160954819Y-78976190D01*
X161954819Y-79261904D02*
X160954819Y-79261904D01*
X161859580Y-78071428D02*
X161907200Y-78119047D01*
X161907200Y-78119047D02*
X161954819Y-78261904D01*
X161954819Y-78261904D02*
X161954819Y-78357142D01*
X161954819Y-78357142D02*
X161907200Y-78499999D01*
X161907200Y-78499999D02*
X161811961Y-78595237D01*
X161811961Y-78595237D02*
X161716723Y-78642856D01*
X161716723Y-78642856D02*
X161526247Y-78690475D01*
X161526247Y-78690475D02*
X161383390Y-78690475D01*
X161383390Y-78690475D02*
X161192914Y-78642856D01*
X161192914Y-78642856D02*
X161097676Y-78595237D01*
X161097676Y-78595237D02*
X161002438Y-78499999D01*
X161002438Y-78499999D02*
X160954819Y-78357142D01*
X160954819Y-78357142D02*
X160954819Y-78261904D01*
X160954819Y-78261904D02*
X161002438Y-78119047D01*
X161002438Y-78119047D02*
X161050057Y-78071428D01*
D11*
X142441547Y-93145270D02*
X142320595Y-93084794D01*
X142320595Y-93084794D02*
X142199642Y-92963842D01*
X142199642Y-92963842D02*
X142018214Y-92782413D01*
X142018214Y-92782413D02*
X141897261Y-92721937D01*
X141897261Y-92721937D02*
X141776309Y-92721937D01*
X141836785Y-93024318D02*
X141715833Y-92963842D01*
X141715833Y-92963842D02*
X141594880Y-92842889D01*
X141594880Y-92842889D02*
X141534404Y-92600984D01*
X141534404Y-92600984D02*
X141534404Y-92177651D01*
X141534404Y-92177651D02*
X141594880Y-91935746D01*
X141594880Y-91935746D02*
X141715833Y-91814794D01*
X141715833Y-91814794D02*
X141836785Y-91754318D01*
X141836785Y-91754318D02*
X142078690Y-91754318D01*
X142078690Y-91754318D02*
X142199642Y-91814794D01*
X142199642Y-91814794D02*
X142320595Y-91935746D01*
X142320595Y-91935746D02*
X142381071Y-92177651D01*
X142381071Y-92177651D02*
X142381071Y-92600984D01*
X142381071Y-92600984D02*
X142320595Y-92842889D01*
X142320595Y-92842889D02*
X142199642Y-92963842D01*
X142199642Y-92963842D02*
X142078690Y-93024318D01*
X142078690Y-93024318D02*
X141836785Y-93024318D01*
X143590595Y-93024318D02*
X142864880Y-93024318D01*
X143227737Y-93024318D02*
X143227737Y-91754318D01*
X143227737Y-91754318D02*
X143106785Y-91935746D01*
X143106785Y-91935746D02*
X142985833Y-92056699D01*
X142985833Y-92056699D02*
X142864880Y-92117175D01*
D10*
X147454819Y-82488094D02*
X146454819Y-82488094D01*
X146454819Y-82488094D02*
X146454819Y-82107142D01*
X146454819Y-82107142D02*
X146502438Y-82011904D01*
X146502438Y-82011904D02*
X146550057Y-81964285D01*
X146550057Y-81964285D02*
X146645295Y-81916666D01*
X146645295Y-81916666D02*
X146788152Y-81916666D01*
X146788152Y-81916666D02*
X146883390Y-81964285D01*
X146883390Y-81964285D02*
X146931009Y-82011904D01*
X146931009Y-82011904D02*
X146978628Y-82107142D01*
X146978628Y-82107142D02*
X146978628Y-82488094D01*
X146550057Y-81535713D02*
X146502438Y-81488094D01*
X146502438Y-81488094D02*
X146454819Y-81392856D01*
X146454819Y-81392856D02*
X146454819Y-81154761D01*
X146454819Y-81154761D02*
X146502438Y-81059523D01*
X146502438Y-81059523D02*
X146550057Y-81011904D01*
X146550057Y-81011904D02*
X146645295Y-80964285D01*
X146645295Y-80964285D02*
X146740533Y-80964285D01*
X146740533Y-80964285D02*
X146883390Y-81011904D01*
X146883390Y-81011904D02*
X147454819Y-81583332D01*
X147454819Y-81583332D02*
X147454819Y-80964285D01*
X134050057Y-82142856D02*
X134002438Y-82095237D01*
X134002438Y-82095237D02*
X133954819Y-81999999D01*
X133954819Y-81999999D02*
X133954819Y-81761904D01*
X133954819Y-81761904D02*
X134002438Y-81666666D01*
X134002438Y-81666666D02*
X134050057Y-81619047D01*
X134050057Y-81619047D02*
X134145295Y-81571428D01*
X134145295Y-81571428D02*
X134240533Y-81571428D01*
X134240533Y-81571428D02*
X134383390Y-81619047D01*
X134383390Y-81619047D02*
X134954819Y-82190475D01*
X134954819Y-82190475D02*
X134954819Y-81571428D01*
X134288152Y-80714285D02*
X134954819Y-80714285D01*
X133907200Y-80952380D02*
X134621485Y-81190475D01*
X134621485Y-81190475D02*
X134621485Y-80571428D01*
X134288152Y-80285713D02*
X134954819Y-80047618D01*
X134954819Y-80047618D02*
X134288152Y-79809523D01*
X145484761Y-91679819D02*
X145151428Y-91203628D01*
X144913333Y-91679819D02*
X144913333Y-90679819D01*
X144913333Y-90679819D02*
X145294285Y-90679819D01*
X145294285Y-90679819D02*
X145389523Y-90727438D01*
X145389523Y-90727438D02*
X145437142Y-90775057D01*
X145437142Y-90775057D02*
X145484761Y-90870295D01*
X145484761Y-90870295D02*
X145484761Y-91013152D01*
X145484761Y-91013152D02*
X145437142Y-91108390D01*
X145437142Y-91108390D02*
X145389523Y-91156009D01*
X145389523Y-91156009D02*
X145294285Y-91203628D01*
X145294285Y-91203628D02*
X144913333Y-91203628D01*
X145770476Y-90679819D02*
X146103809Y-91679819D01*
X146103809Y-91679819D02*
X146437142Y-90679819D01*
X147294285Y-91679819D02*
X146722857Y-91679819D01*
X147008571Y-91679819D02*
X147008571Y-90679819D01*
X147008571Y-90679819D02*
X146913333Y-90822676D01*
X146913333Y-90822676D02*
X146818095Y-90917914D01*
X146818095Y-90917914D02*
X146722857Y-90965533D01*
D12*
%TO.C,P1*%
X148590000Y-85940000D02*
X148590000Y-87360000D01*
X148590000Y-87360000D02*
X153090000Y-87360000D01*
X148590000Y-92140000D02*
X153090000Y-92140000D01*
X148590000Y-93560000D02*
X148590000Y-92140000D01*
X148900000Y-90700000D02*
X149500000Y-91000000D01*
X148900000Y-91300000D02*
X148900000Y-90700000D01*
X149500000Y-91000000D02*
X148900000Y-91300000D01*
X153090000Y-87360000D02*
X153090000Y-89750000D01*
X153090000Y-92140000D02*
X153090000Y-89750000D01*
X154200000Y-88250000D02*
X154200000Y-88750000D01*
X154200000Y-88750000D02*
X159700000Y-88750000D01*
X154200000Y-90750000D02*
X154200000Y-91250000D01*
X154200000Y-91250000D02*
X159700000Y-91250000D01*
X159700000Y-88250000D02*
X154200000Y-88250000D01*
X159700000Y-88750000D02*
X159700000Y-88250000D01*
X159700000Y-90750000D02*
X154200000Y-90750000D01*
X159700000Y-91250000D02*
X159700000Y-90750000D01*
X160310000Y-85940000D02*
X148590000Y-85940000D01*
X160310000Y-89750000D02*
X160310000Y-85940000D01*
X160310000Y-89750000D02*
X160310000Y-93560000D01*
X160310000Y-93560000D02*
X148590000Y-93560000D01*
%TO.C,P3*%
X148640000Y-77440000D02*
X148640000Y-78860000D01*
X148640000Y-78860000D02*
X153140000Y-78860000D01*
X148640000Y-83640000D02*
X153140000Y-83640000D01*
X148640000Y-85060000D02*
X148640000Y-83640000D01*
X148950000Y-82200000D02*
X149550000Y-82500000D01*
X148950000Y-82800000D02*
X148950000Y-82200000D01*
X149550000Y-82500000D02*
X148950000Y-82800000D01*
X153140000Y-78860000D02*
X153140000Y-81250000D01*
X153140000Y-83640000D02*
X153140000Y-81250000D01*
X154250000Y-79750000D02*
X154250000Y-80250000D01*
X154250000Y-80250000D02*
X159750000Y-80250000D01*
X154250000Y-82250000D02*
X154250000Y-82750000D01*
X154250000Y-82750000D02*
X159750000Y-82750000D01*
X159750000Y-79750000D02*
X154250000Y-79750000D01*
X159750000Y-80250000D02*
X159750000Y-79750000D01*
X159750000Y-82250000D02*
X154250000Y-82250000D01*
X159750000Y-82750000D02*
X159750000Y-82250000D01*
X160360000Y-77440000D02*
X148640000Y-77440000D01*
X160360000Y-81250000D02*
X160360000Y-77440000D01*
X160360000Y-81250000D02*
X160360000Y-85060000D01*
X160360000Y-85060000D02*
X148640000Y-85060000D01*
D13*
%TO.C,Q1*%
X140937500Y-90950000D02*
X141987500Y-90950000D01*
X142337500Y-91000000D02*
X142787500Y-91000000D01*
X142337500Y-93900000D02*
X142337500Y-91000000D01*
X142787500Y-91000000D02*
X142787500Y-93900000D01*
X142787500Y-93900000D02*
X142337500Y-93900000D01*
D12*
%TO.C,P2*%
X135690000Y-77440000D02*
X147410000Y-77440000D01*
X135690000Y-81250000D02*
X135690000Y-77440000D01*
X135690000Y-81250000D02*
X135690000Y-85060000D01*
X135690000Y-85060000D02*
X147410000Y-85060000D01*
X136300000Y-79750000D02*
X136300000Y-80250000D01*
X136300000Y-80250000D02*
X141800000Y-80250000D01*
X136300000Y-82250000D02*
X136300000Y-82750000D01*
X136300000Y-82750000D02*
X141800000Y-82750000D01*
X141800000Y-79750000D02*
X136300000Y-79750000D01*
X141800000Y-80250000D02*
X141800000Y-79750000D01*
X141800000Y-82250000D02*
X136300000Y-82250000D01*
X141800000Y-82750000D02*
X141800000Y-82250000D01*
X142910000Y-78860000D02*
X142910000Y-81250000D01*
X142910000Y-83640000D02*
X142910000Y-81250000D01*
X146500000Y-80000000D02*
X147100000Y-79700000D01*
X147100000Y-79700000D02*
X147100000Y-80300000D01*
X147100000Y-80300000D02*
X146500000Y-80000000D01*
X147410000Y-77440000D02*
X147410000Y-78860000D01*
X147410000Y-78860000D02*
X142910000Y-78860000D01*
X147410000Y-83640000D02*
X142910000Y-83640000D01*
X147410000Y-85060000D02*
X147410000Y-83640000D01*
%TO.C,RV1*%
X140565000Y-88730000D02*
X140565000Y-85625000D01*
X140565000Y-90365000D02*
X140565000Y-89720000D01*
X147515000Y-85625000D02*
X140565000Y-85625000D01*
X147515000Y-88730000D02*
X147515000Y-85625000D01*
X147515000Y-90365000D02*
X140565000Y-90365000D01*
X147515000Y-90365000D02*
X147515000Y-89720000D01*
%TD*%
M02*
