%TF.GenerationSoftware,KiCad,Pcbnew,9.0.0*%
%TF.CreationDate,2025-03-22T17:47:38+01:00*%
%TF.ProjectId,FanControles,46616e43-6f6e-4747-926f-6c65732e6b69,rev?*%
%TF.SameCoordinates,Original*%
%TF.FileFunction,Legend,Bot*%
%TF.FilePolarity,Positive*%
%FSLAX46Y46*%
G04 Gerber Fmt 4.6, Leading zero omitted, Abs format (unit mm)*
G04 Created by KiCad (PCBNEW 9.0.0) date 2025-03-22 17:47:38*
%MOMM*%
%LPD*%
G01*
G04 APERTURE LIST*
%ADD10C,0.125000*%
%ADD11C,0.100000*%
%ADD12C,0.254000*%
%ADD13C,0.150000*%
G04 APERTURE END LIST*
D10*
X157484480Y-78285713D02*
X158294004Y-78285713D01*
X158294004Y-78285713D02*
X158389242Y-78238094D01*
X158389242Y-78238094D02*
X158436861Y-78190475D01*
X158436861Y-78190475D02*
X158484480Y-78095237D01*
X158484480Y-78095237D02*
X158484480Y-77952380D01*
X158484480Y-77952380D02*
X158436861Y-77857142D01*
X158103528Y-78285713D02*
X158151147Y-78190475D01*
X158151147Y-78190475D02*
X158151147Y-77999999D01*
X158151147Y-77999999D02*
X158103528Y-77904761D01*
X158103528Y-77904761D02*
X158055908Y-77857142D01*
X158055908Y-77857142D02*
X157960670Y-77809523D01*
X157960670Y-77809523D02*
X157674956Y-77809523D01*
X157674956Y-77809523D02*
X157579718Y-77857142D01*
X157579718Y-77857142D02*
X157532099Y-77904761D01*
X157532099Y-77904761D02*
X157484480Y-77999999D01*
X157484480Y-77999999D02*
X157484480Y-78190475D01*
X157484480Y-78190475D02*
X157532099Y-78285713D01*
X158151147Y-78761904D02*
X157484480Y-78761904D01*
X157151147Y-78761904D02*
X157198766Y-78714285D01*
X157198766Y-78714285D02*
X157246385Y-78761904D01*
X157246385Y-78761904D02*
X157198766Y-78809523D01*
X157198766Y-78809523D02*
X157151147Y-78761904D01*
X157151147Y-78761904D02*
X157246385Y-78761904D01*
X157484480Y-79095237D02*
X157484480Y-79476189D01*
X157151147Y-79238094D02*
X158008289Y-79238094D01*
X158008289Y-79238094D02*
X158103528Y-79285713D01*
X158103528Y-79285713D02*
X158151147Y-79380951D01*
X158151147Y-79380951D02*
X158151147Y-79476189D01*
X158151147Y-79809523D02*
X157151147Y-79809523D01*
X158151147Y-80238094D02*
X157627337Y-80238094D01*
X157627337Y-80238094D02*
X157532099Y-80190475D01*
X157532099Y-80190475D02*
X157484480Y-80095237D01*
X157484480Y-80095237D02*
X157484480Y-79952380D01*
X157484480Y-79952380D02*
X157532099Y-79857142D01*
X157532099Y-79857142D02*
X157579718Y-79809523D01*
X157484480Y-81142856D02*
X158151147Y-81142856D01*
X157484480Y-80714285D02*
X158008289Y-80714285D01*
X158008289Y-80714285D02*
X158103528Y-80761904D01*
X158103528Y-80761904D02*
X158151147Y-80857142D01*
X158151147Y-80857142D02*
X158151147Y-80999999D01*
X158151147Y-80999999D02*
X158103528Y-81095237D01*
X158103528Y-81095237D02*
X158055908Y-81142856D01*
X158151147Y-81619047D02*
X157151147Y-81619047D01*
X157532099Y-81619047D02*
X157484480Y-81714285D01*
X157484480Y-81714285D02*
X157484480Y-81904761D01*
X157484480Y-81904761D02*
X157532099Y-81999999D01*
X157532099Y-81999999D02*
X157579718Y-82047618D01*
X157579718Y-82047618D02*
X157674956Y-82095237D01*
X157674956Y-82095237D02*
X157960670Y-82095237D01*
X157960670Y-82095237D02*
X158055908Y-82047618D01*
X158055908Y-82047618D02*
X158103528Y-81999999D01*
X158103528Y-81999999D02*
X158151147Y-81904761D01*
X158151147Y-81904761D02*
X158151147Y-81714285D01*
X158151147Y-81714285D02*
X158103528Y-81619047D01*
X158055908Y-82523809D02*
X158103528Y-82571428D01*
X158103528Y-82571428D02*
X158151147Y-82523809D01*
X158151147Y-82523809D02*
X158103528Y-82476190D01*
X158103528Y-82476190D02*
X158055908Y-82523809D01*
X158055908Y-82523809D02*
X158151147Y-82523809D01*
X158103528Y-83428570D02*
X158151147Y-83333332D01*
X158151147Y-83333332D02*
X158151147Y-83142856D01*
X158151147Y-83142856D02*
X158103528Y-83047618D01*
X158103528Y-83047618D02*
X158055908Y-82999999D01*
X158055908Y-82999999D02*
X157960670Y-82952380D01*
X157960670Y-82952380D02*
X157674956Y-82952380D01*
X157674956Y-82952380D02*
X157579718Y-82999999D01*
X157579718Y-82999999D02*
X157532099Y-83047618D01*
X157532099Y-83047618D02*
X157484480Y-83142856D01*
X157484480Y-83142856D02*
X157484480Y-83333332D01*
X157484480Y-83333332D02*
X157532099Y-83428570D01*
X158151147Y-83999999D02*
X158103528Y-83904761D01*
X158103528Y-83904761D02*
X158055908Y-83857142D01*
X158055908Y-83857142D02*
X157960670Y-83809523D01*
X157960670Y-83809523D02*
X157674956Y-83809523D01*
X157674956Y-83809523D02*
X157579718Y-83857142D01*
X157579718Y-83857142D02*
X157532099Y-83904761D01*
X157532099Y-83904761D02*
X157484480Y-83999999D01*
X157484480Y-83999999D02*
X157484480Y-84142856D01*
X157484480Y-84142856D02*
X157532099Y-84238094D01*
X157532099Y-84238094D02*
X157579718Y-84285713D01*
X157579718Y-84285713D02*
X157674956Y-84333332D01*
X157674956Y-84333332D02*
X157960670Y-84333332D01*
X157960670Y-84333332D02*
X158055908Y-84285713D01*
X158055908Y-84285713D02*
X158103528Y-84238094D01*
X158103528Y-84238094D02*
X158151147Y-84142856D01*
X158151147Y-84142856D02*
X158151147Y-83999999D01*
X158151147Y-84761904D02*
X157484480Y-84761904D01*
X157579718Y-84761904D02*
X157532099Y-84809523D01*
X157532099Y-84809523D02*
X157484480Y-84904761D01*
X157484480Y-84904761D02*
X157484480Y-85047618D01*
X157484480Y-85047618D02*
X157532099Y-85142856D01*
X157532099Y-85142856D02*
X157627337Y-85190475D01*
X157627337Y-85190475D02*
X158151147Y-85190475D01*
X157627337Y-85190475D02*
X157532099Y-85238094D01*
X157532099Y-85238094D02*
X157484480Y-85333332D01*
X157484480Y-85333332D02*
X157484480Y-85476189D01*
X157484480Y-85476189D02*
X157532099Y-85571428D01*
X157532099Y-85571428D02*
X157627337Y-85619047D01*
X157627337Y-85619047D02*
X158151147Y-85619047D01*
X157103528Y-86809522D02*
X158389242Y-85952380D01*
X158151147Y-87285713D02*
X158103528Y-87190475D01*
X158103528Y-87190475D02*
X158008289Y-87142856D01*
X158008289Y-87142856D02*
X157151147Y-87142856D01*
X158151147Y-87809523D02*
X158103528Y-87714285D01*
X158103528Y-87714285D02*
X158055908Y-87666666D01*
X158055908Y-87666666D02*
X157960670Y-87619047D01*
X157960670Y-87619047D02*
X157674956Y-87619047D01*
X157674956Y-87619047D02*
X157579718Y-87666666D01*
X157579718Y-87666666D02*
X157532099Y-87714285D01*
X157532099Y-87714285D02*
X157484480Y-87809523D01*
X157484480Y-87809523D02*
X157484480Y-87952380D01*
X157484480Y-87952380D02*
X157532099Y-88047618D01*
X157532099Y-88047618D02*
X157579718Y-88095237D01*
X157579718Y-88095237D02*
X157674956Y-88142856D01*
X157674956Y-88142856D02*
X157960670Y-88142856D01*
X157960670Y-88142856D02*
X158055908Y-88095237D01*
X158055908Y-88095237D02*
X158103528Y-88047618D01*
X158103528Y-88047618D02*
X158151147Y-87952380D01*
X158151147Y-87952380D02*
X158151147Y-87809523D01*
X158151147Y-88571428D02*
X157484480Y-88571428D01*
X157674956Y-88571428D02*
X157579718Y-88619047D01*
X157579718Y-88619047D02*
X157532099Y-88666666D01*
X157532099Y-88666666D02*
X157484480Y-88761904D01*
X157484480Y-88761904D02*
X157484480Y-88857142D01*
X158151147Y-89619047D02*
X157151147Y-89619047D01*
X158103528Y-89619047D02*
X158151147Y-89523809D01*
X158151147Y-89523809D02*
X158151147Y-89333333D01*
X158151147Y-89333333D02*
X158103528Y-89238095D01*
X158103528Y-89238095D02*
X158055908Y-89190476D01*
X158055908Y-89190476D02*
X157960670Y-89142857D01*
X157960670Y-89142857D02*
X157674956Y-89142857D01*
X157674956Y-89142857D02*
X157579718Y-89190476D01*
X157579718Y-89190476D02*
X157532099Y-89238095D01*
X157532099Y-89238095D02*
X157484480Y-89333333D01*
X157484480Y-89333333D02*
X157484480Y-89523809D01*
X157484480Y-89523809D02*
X157532099Y-89619047D01*
X158151147Y-90238095D02*
X158103528Y-90142857D01*
X158103528Y-90142857D02*
X158055908Y-90095238D01*
X158055908Y-90095238D02*
X157960670Y-90047619D01*
X157960670Y-90047619D02*
X157674956Y-90047619D01*
X157674956Y-90047619D02*
X157579718Y-90095238D01*
X157579718Y-90095238D02*
X157532099Y-90142857D01*
X157532099Y-90142857D02*
X157484480Y-90238095D01*
X157484480Y-90238095D02*
X157484480Y-90380952D01*
X157484480Y-90380952D02*
X157532099Y-90476190D01*
X157532099Y-90476190D02*
X157579718Y-90523809D01*
X157579718Y-90523809D02*
X157674956Y-90571428D01*
X157674956Y-90571428D02*
X157960670Y-90571428D01*
X157960670Y-90571428D02*
X158055908Y-90523809D01*
X158055908Y-90523809D02*
X158103528Y-90476190D01*
X158103528Y-90476190D02*
X158151147Y-90380952D01*
X158151147Y-90380952D02*
X158151147Y-90238095D01*
X158151147Y-91000000D02*
X157484480Y-91000000D01*
X157674956Y-91000000D02*
X157579718Y-91047619D01*
X157579718Y-91047619D02*
X157532099Y-91095238D01*
X157532099Y-91095238D02*
X157484480Y-91190476D01*
X157484480Y-91190476D02*
X157484480Y-91285714D01*
X157151147Y-92095238D02*
X157151147Y-91619048D01*
X157151147Y-91619048D02*
X157627337Y-91571429D01*
X157627337Y-91571429D02*
X157579718Y-91619048D01*
X157579718Y-91619048D02*
X157532099Y-91714286D01*
X157532099Y-91714286D02*
X157532099Y-91952381D01*
X157532099Y-91952381D02*
X157579718Y-92047619D01*
X157579718Y-92047619D02*
X157627337Y-92095238D01*
X157627337Y-92095238D02*
X157722575Y-92142857D01*
X157722575Y-92142857D02*
X157960670Y-92142857D01*
X157960670Y-92142857D02*
X158055908Y-92095238D01*
X158055908Y-92095238D02*
X158103528Y-92047619D01*
X158103528Y-92047619D02*
X158151147Y-91952381D01*
X158151147Y-91952381D02*
X158151147Y-91714286D01*
X158151147Y-91714286D02*
X158103528Y-91619048D01*
X158103528Y-91619048D02*
X158055908Y-91571429D01*
X157103528Y-93285714D02*
X158389242Y-92428572D01*
X159237281Y-81285713D02*
X159237281Y-80952380D01*
X159761091Y-80952380D02*
X158761091Y-80952380D01*
X158761091Y-80952380D02*
X158761091Y-81428570D01*
X159761091Y-82238094D02*
X159237281Y-82238094D01*
X159237281Y-82238094D02*
X159142043Y-82190475D01*
X159142043Y-82190475D02*
X159094424Y-82095237D01*
X159094424Y-82095237D02*
X159094424Y-81904761D01*
X159094424Y-81904761D02*
X159142043Y-81809523D01*
X159713472Y-82238094D02*
X159761091Y-82142856D01*
X159761091Y-82142856D02*
X159761091Y-81904761D01*
X159761091Y-81904761D02*
X159713472Y-81809523D01*
X159713472Y-81809523D02*
X159618233Y-81761904D01*
X159618233Y-81761904D02*
X159522995Y-81761904D01*
X159522995Y-81761904D02*
X159427757Y-81809523D01*
X159427757Y-81809523D02*
X159380138Y-81904761D01*
X159380138Y-81904761D02*
X159380138Y-82142856D01*
X159380138Y-82142856D02*
X159332519Y-82238094D01*
X159094424Y-82714285D02*
X159761091Y-82714285D01*
X159189662Y-82714285D02*
X159142043Y-82761904D01*
X159142043Y-82761904D02*
X159094424Y-82857142D01*
X159094424Y-82857142D02*
X159094424Y-82999999D01*
X159094424Y-82999999D02*
X159142043Y-83095237D01*
X159142043Y-83095237D02*
X159237281Y-83142856D01*
X159237281Y-83142856D02*
X159761091Y-83142856D01*
X159665852Y-84190475D02*
X159713472Y-84142856D01*
X159713472Y-84142856D02*
X159761091Y-83999999D01*
X159761091Y-83999999D02*
X159761091Y-83904761D01*
X159761091Y-83904761D02*
X159713472Y-83761904D01*
X159713472Y-83761904D02*
X159618233Y-83666666D01*
X159618233Y-83666666D02*
X159522995Y-83619047D01*
X159522995Y-83619047D02*
X159332519Y-83571428D01*
X159332519Y-83571428D02*
X159189662Y-83571428D01*
X159189662Y-83571428D02*
X158999186Y-83619047D01*
X158999186Y-83619047D02*
X158903948Y-83666666D01*
X158903948Y-83666666D02*
X158808710Y-83761904D01*
X158808710Y-83761904D02*
X158761091Y-83904761D01*
X158761091Y-83904761D02*
X158761091Y-83999999D01*
X158761091Y-83999999D02*
X158808710Y-84142856D01*
X158808710Y-84142856D02*
X158856329Y-84190475D01*
X159761091Y-84761904D02*
X159713472Y-84666666D01*
X159713472Y-84666666D02*
X159665852Y-84619047D01*
X159665852Y-84619047D02*
X159570614Y-84571428D01*
X159570614Y-84571428D02*
X159284900Y-84571428D01*
X159284900Y-84571428D02*
X159189662Y-84619047D01*
X159189662Y-84619047D02*
X159142043Y-84666666D01*
X159142043Y-84666666D02*
X159094424Y-84761904D01*
X159094424Y-84761904D02*
X159094424Y-84904761D01*
X159094424Y-84904761D02*
X159142043Y-84999999D01*
X159142043Y-84999999D02*
X159189662Y-85047618D01*
X159189662Y-85047618D02*
X159284900Y-85095237D01*
X159284900Y-85095237D02*
X159570614Y-85095237D01*
X159570614Y-85095237D02*
X159665852Y-85047618D01*
X159665852Y-85047618D02*
X159713472Y-84999999D01*
X159713472Y-84999999D02*
X159761091Y-84904761D01*
X159761091Y-84904761D02*
X159761091Y-84761904D01*
X159094424Y-85523809D02*
X159761091Y-85523809D01*
X159189662Y-85523809D02*
X159142043Y-85571428D01*
X159142043Y-85571428D02*
X159094424Y-85666666D01*
X159094424Y-85666666D02*
X159094424Y-85809523D01*
X159094424Y-85809523D02*
X159142043Y-85904761D01*
X159142043Y-85904761D02*
X159237281Y-85952380D01*
X159237281Y-85952380D02*
X159761091Y-85952380D01*
X159094424Y-86285714D02*
X159094424Y-86666666D01*
X158761091Y-86428571D02*
X159618233Y-86428571D01*
X159618233Y-86428571D02*
X159713472Y-86476190D01*
X159713472Y-86476190D02*
X159761091Y-86571428D01*
X159761091Y-86571428D02*
X159761091Y-86666666D01*
X159761091Y-87000000D02*
X159094424Y-87000000D01*
X159284900Y-87000000D02*
X159189662Y-87047619D01*
X159189662Y-87047619D02*
X159142043Y-87095238D01*
X159142043Y-87095238D02*
X159094424Y-87190476D01*
X159094424Y-87190476D02*
X159094424Y-87285714D01*
X159761091Y-87761905D02*
X159713472Y-87666667D01*
X159713472Y-87666667D02*
X159665852Y-87619048D01*
X159665852Y-87619048D02*
X159570614Y-87571429D01*
X159570614Y-87571429D02*
X159284900Y-87571429D01*
X159284900Y-87571429D02*
X159189662Y-87619048D01*
X159189662Y-87619048D02*
X159142043Y-87666667D01*
X159142043Y-87666667D02*
X159094424Y-87761905D01*
X159094424Y-87761905D02*
X159094424Y-87904762D01*
X159094424Y-87904762D02*
X159142043Y-88000000D01*
X159142043Y-88000000D02*
X159189662Y-88047619D01*
X159189662Y-88047619D02*
X159284900Y-88095238D01*
X159284900Y-88095238D02*
X159570614Y-88095238D01*
X159570614Y-88095238D02*
X159665852Y-88047619D01*
X159665852Y-88047619D02*
X159713472Y-88000000D01*
X159713472Y-88000000D02*
X159761091Y-87904762D01*
X159761091Y-87904762D02*
X159761091Y-87761905D01*
X159761091Y-88666667D02*
X159713472Y-88571429D01*
X159713472Y-88571429D02*
X159618233Y-88523810D01*
X159618233Y-88523810D02*
X158761091Y-88523810D01*
X159713472Y-89428572D02*
X159761091Y-89333334D01*
X159761091Y-89333334D02*
X159761091Y-89142858D01*
X159761091Y-89142858D02*
X159713472Y-89047620D01*
X159713472Y-89047620D02*
X159618233Y-89000001D01*
X159618233Y-89000001D02*
X159237281Y-89000001D01*
X159237281Y-89000001D02*
X159142043Y-89047620D01*
X159142043Y-89047620D02*
X159094424Y-89142858D01*
X159094424Y-89142858D02*
X159094424Y-89333334D01*
X159094424Y-89333334D02*
X159142043Y-89428572D01*
X159142043Y-89428572D02*
X159237281Y-89476191D01*
X159237281Y-89476191D02*
X159332519Y-89476191D01*
X159332519Y-89476191D02*
X159427757Y-89000001D01*
X159761091Y-89904763D02*
X159094424Y-89904763D01*
X159284900Y-89904763D02*
X159189662Y-89952382D01*
X159189662Y-89952382D02*
X159142043Y-90000001D01*
X159142043Y-90000001D02*
X159094424Y-90095239D01*
X159094424Y-90095239D02*
X159094424Y-90190477D01*
D11*
X142791353Y-77372419D02*
X142553258Y-78372419D01*
X142553258Y-78372419D02*
X142362782Y-77658133D01*
X142362782Y-77658133D02*
X142172306Y-78372419D01*
X142172306Y-78372419D02*
X141934211Y-77372419D01*
X141124687Y-78372419D02*
X141124687Y-77848609D01*
X141124687Y-77848609D02*
X141172306Y-77753371D01*
X141172306Y-77753371D02*
X141267544Y-77705752D01*
X141267544Y-77705752D02*
X141458020Y-77705752D01*
X141458020Y-77705752D02*
X141553258Y-77753371D01*
X141124687Y-78324800D02*
X141219925Y-78372419D01*
X141219925Y-78372419D02*
X141458020Y-78372419D01*
X141458020Y-78372419D02*
X141553258Y-78324800D01*
X141553258Y-78324800D02*
X141600877Y-78229561D01*
X141600877Y-78229561D02*
X141600877Y-78134323D01*
X141600877Y-78134323D02*
X141553258Y-78039085D01*
X141553258Y-78039085D02*
X141458020Y-77991466D01*
X141458020Y-77991466D02*
X141219925Y-77991466D01*
X141219925Y-77991466D02*
X141124687Y-77943847D01*
X140743734Y-77705752D02*
X140505639Y-78372419D01*
X140267544Y-77705752D02*
X140505639Y-78372419D01*
X140505639Y-78372419D02*
X140600877Y-78610514D01*
X140600877Y-78610514D02*
X140648496Y-78658133D01*
X140648496Y-78658133D02*
X140743734Y-78705752D01*
X139981829Y-77372419D02*
X139743734Y-78372419D01*
X139743734Y-78372419D02*
X139553258Y-77658133D01*
X139553258Y-77658133D02*
X139362782Y-78372419D01*
X139362782Y-78372419D02*
X139124687Y-77372419D01*
X138315163Y-78372419D02*
X138315163Y-77848609D01*
X138315163Y-77848609D02*
X138362782Y-77753371D01*
X138362782Y-77753371D02*
X138458020Y-77705752D01*
X138458020Y-77705752D02*
X138648496Y-77705752D01*
X138648496Y-77705752D02*
X138743734Y-77753371D01*
X138315163Y-78324800D02*
X138410401Y-78372419D01*
X138410401Y-78372419D02*
X138648496Y-78372419D01*
X138648496Y-78372419D02*
X138743734Y-78324800D01*
X138743734Y-78324800D02*
X138791353Y-78229561D01*
X138791353Y-78229561D02*
X138791353Y-78134323D01*
X138791353Y-78134323D02*
X138743734Y-78039085D01*
X138743734Y-78039085D02*
X138648496Y-77991466D01*
X138648496Y-77991466D02*
X138410401Y-77991466D01*
X138410401Y-77991466D02*
X138315163Y-77943847D01*
X137934210Y-77705752D02*
X137696115Y-78372419D01*
X137458020Y-77705752D02*
X137696115Y-78372419D01*
X137696115Y-78372419D02*
X137791353Y-78610514D01*
X137791353Y-78610514D02*
X137838972Y-78658133D01*
X137838972Y-78658133D02*
X137934210Y-78705752D01*
X137172305Y-77372419D02*
X136934210Y-78372419D01*
X136934210Y-78372419D02*
X136743734Y-77658133D01*
X136743734Y-77658133D02*
X136553258Y-78372419D01*
X136553258Y-78372419D02*
X136315163Y-77372419D01*
X135505639Y-78372419D02*
X135505639Y-77848609D01*
X135505639Y-77848609D02*
X135553258Y-77753371D01*
X135553258Y-77753371D02*
X135648496Y-77705752D01*
X135648496Y-77705752D02*
X135838972Y-77705752D01*
X135838972Y-77705752D02*
X135934210Y-77753371D01*
X135505639Y-78324800D02*
X135600877Y-78372419D01*
X135600877Y-78372419D02*
X135838972Y-78372419D01*
X135838972Y-78372419D02*
X135934210Y-78324800D01*
X135934210Y-78324800D02*
X135981829Y-78229561D01*
X135981829Y-78229561D02*
X135981829Y-78134323D01*
X135981829Y-78134323D02*
X135934210Y-78039085D01*
X135934210Y-78039085D02*
X135838972Y-77991466D01*
X135838972Y-77991466D02*
X135600877Y-77991466D01*
X135600877Y-77991466D02*
X135505639Y-77943847D01*
X135124686Y-77705752D02*
X134886591Y-78372419D01*
X134648496Y-77705752D02*
X134886591Y-78372419D01*
X134886591Y-78372419D02*
X134981829Y-78610514D01*
X134981829Y-78610514D02*
X135029448Y-78658133D01*
X135029448Y-78658133D02*
X135124686Y-78705752D01*
D12*
X147461071Y-92359080D02*
X147279643Y-92419556D01*
X147279643Y-92419556D02*
X147219166Y-92480032D01*
X147219166Y-92480032D02*
X147158690Y-92600984D01*
X147158690Y-92600984D02*
X147158690Y-92782413D01*
X147158690Y-92782413D02*
X147219166Y-92903365D01*
X147219166Y-92903365D02*
X147279643Y-92963842D01*
X147279643Y-92963842D02*
X147400595Y-93024318D01*
X147400595Y-93024318D02*
X147884405Y-93024318D01*
X147884405Y-93024318D02*
X147884405Y-91754318D01*
X147884405Y-91754318D02*
X147461071Y-91754318D01*
X147461071Y-91754318D02*
X147340119Y-91814794D01*
X147340119Y-91814794D02*
X147279643Y-91875270D01*
X147279643Y-91875270D02*
X147219166Y-91996222D01*
X147219166Y-91996222D02*
X147219166Y-92117175D01*
X147219166Y-92117175D02*
X147279643Y-92238127D01*
X147279643Y-92238127D02*
X147340119Y-92298603D01*
X147340119Y-92298603D02*
X147461071Y-92359080D01*
X147461071Y-92359080D02*
X147884405Y-92359080D01*
X146674881Y-92963842D02*
X146493452Y-93024318D01*
X146493452Y-93024318D02*
X146191071Y-93024318D01*
X146191071Y-93024318D02*
X146070119Y-92963842D01*
X146070119Y-92963842D02*
X146009643Y-92903365D01*
X146009643Y-92903365D02*
X145949166Y-92782413D01*
X145949166Y-92782413D02*
X145949166Y-92661461D01*
X145949166Y-92661461D02*
X146009643Y-92540508D01*
X146009643Y-92540508D02*
X146070119Y-92480032D01*
X146070119Y-92480032D02*
X146191071Y-92419556D01*
X146191071Y-92419556D02*
X146432976Y-92359080D01*
X146432976Y-92359080D02*
X146553928Y-92298603D01*
X146553928Y-92298603D02*
X146614405Y-92238127D01*
X146614405Y-92238127D02*
X146674881Y-92117175D01*
X146674881Y-92117175D02*
X146674881Y-91996222D01*
X146674881Y-91996222D02*
X146614405Y-91875270D01*
X146614405Y-91875270D02*
X146553928Y-91814794D01*
X146553928Y-91814794D02*
X146432976Y-91754318D01*
X146432976Y-91754318D02*
X146130595Y-91754318D01*
X146130595Y-91754318D02*
X145949166Y-91814794D01*
X145404881Y-93024318D02*
X145404881Y-91754318D01*
X145404881Y-92359080D02*
X144679166Y-92359080D01*
X144679166Y-93024318D02*
X144679166Y-91754318D01*
X143409166Y-93024318D02*
X144134881Y-93024318D01*
X143772024Y-93024318D02*
X143772024Y-91754318D01*
X143772024Y-91754318D02*
X143892976Y-91935746D01*
X143892976Y-91935746D02*
X144013928Y-92056699D01*
X144013928Y-92056699D02*
X144134881Y-92117175D01*
X142622976Y-91754318D02*
X142502023Y-91754318D01*
X142502023Y-91754318D02*
X142381071Y-91814794D01*
X142381071Y-91814794D02*
X142320595Y-91875270D01*
X142320595Y-91875270D02*
X142260119Y-91996222D01*
X142260119Y-91996222D02*
X142199642Y-92238127D01*
X142199642Y-92238127D02*
X142199642Y-92540508D01*
X142199642Y-92540508D02*
X142260119Y-92782413D01*
X142260119Y-92782413D02*
X142320595Y-92903365D01*
X142320595Y-92903365D02*
X142381071Y-92963842D01*
X142381071Y-92963842D02*
X142502023Y-93024318D01*
X142502023Y-93024318D02*
X142622976Y-93024318D01*
X142622976Y-93024318D02*
X142743928Y-92963842D01*
X142743928Y-92963842D02*
X142804404Y-92903365D01*
X142804404Y-92903365D02*
X142864881Y-92782413D01*
X142864881Y-92782413D02*
X142925357Y-92540508D01*
X142925357Y-92540508D02*
X142925357Y-92238127D01*
X142925357Y-92238127D02*
X142864881Y-91996222D01*
X142864881Y-91996222D02*
X142804404Y-91875270D01*
X142804404Y-91875270D02*
X142743928Y-91814794D01*
X142743928Y-91814794D02*
X142622976Y-91754318D01*
X141776309Y-91754318D02*
X140990118Y-91754318D01*
X140990118Y-91754318D02*
X141413452Y-92238127D01*
X141413452Y-92238127D02*
X141232023Y-92238127D01*
X141232023Y-92238127D02*
X141111071Y-92298603D01*
X141111071Y-92298603D02*
X141050595Y-92359080D01*
X141050595Y-92359080D02*
X140990118Y-92480032D01*
X140990118Y-92480032D02*
X140990118Y-92782413D01*
X140990118Y-92782413D02*
X141050595Y-92903365D01*
X141050595Y-92903365D02*
X141111071Y-92963842D01*
X141111071Y-92963842D02*
X141232023Y-93024318D01*
X141232023Y-93024318D02*
X141594880Y-93024318D01*
X141594880Y-93024318D02*
X141715833Y-92963842D01*
X141715833Y-92963842D02*
X141776309Y-92903365D01*
X140022499Y-92359080D02*
X139841071Y-92419556D01*
X139841071Y-92419556D02*
X139780594Y-92480032D01*
X139780594Y-92480032D02*
X139720118Y-92600984D01*
X139720118Y-92600984D02*
X139720118Y-92782413D01*
X139720118Y-92782413D02*
X139780594Y-92903365D01*
X139780594Y-92903365D02*
X139841071Y-92963842D01*
X139841071Y-92963842D02*
X139962023Y-93024318D01*
X139962023Y-93024318D02*
X140445833Y-93024318D01*
X140445833Y-93024318D02*
X140445833Y-91754318D01*
X140445833Y-91754318D02*
X140022499Y-91754318D01*
X140022499Y-91754318D02*
X139901547Y-91814794D01*
X139901547Y-91814794D02*
X139841071Y-91875270D01*
X139841071Y-91875270D02*
X139780594Y-91996222D01*
X139780594Y-91996222D02*
X139780594Y-92117175D01*
X139780594Y-92117175D02*
X139841071Y-92238127D01*
X139841071Y-92238127D02*
X139901547Y-92298603D01*
X139901547Y-92298603D02*
X140022499Y-92359080D01*
X140022499Y-92359080D02*
X140445833Y-92359080D01*
X139175833Y-93024318D02*
X139175833Y-91754318D01*
X138450118Y-93024318D02*
X138994404Y-92298603D01*
X138450118Y-91754318D02*
X139175833Y-92480032D01*
X137180118Y-93024318D02*
X137603452Y-92419556D01*
X137905833Y-93024318D02*
X137905833Y-91754318D01*
X137905833Y-91754318D02*
X137422023Y-91754318D01*
X137422023Y-91754318D02*
X137301071Y-91814794D01*
X137301071Y-91814794D02*
X137240594Y-91875270D01*
X137240594Y-91875270D02*
X137180118Y-91996222D01*
X137180118Y-91996222D02*
X137180118Y-92177651D01*
X137180118Y-92177651D02*
X137240594Y-92298603D01*
X137240594Y-92298603D02*
X137301071Y-92359080D01*
X137301071Y-92359080D02*
X137422023Y-92419556D01*
X137422023Y-92419556D02*
X137905833Y-92419556D01*
D13*
X144620238Y-89454819D02*
X145191666Y-89454819D01*
X144905952Y-89454819D02*
X144905952Y-88454819D01*
X144905952Y-88454819D02*
X145001190Y-88597676D01*
X145001190Y-88597676D02*
X145096428Y-88692914D01*
X145096428Y-88692914D02*
X145191666Y-88740533D01*
X144001190Y-88454819D02*
X143905952Y-88454819D01*
X143905952Y-88454819D02*
X143810714Y-88502438D01*
X143810714Y-88502438D02*
X143763095Y-88550057D01*
X143763095Y-88550057D02*
X143715476Y-88645295D01*
X143715476Y-88645295D02*
X143667857Y-88835771D01*
X143667857Y-88835771D02*
X143667857Y-89073866D01*
X143667857Y-89073866D02*
X143715476Y-89264342D01*
X143715476Y-89264342D02*
X143763095Y-89359580D01*
X143763095Y-89359580D02*
X143810714Y-89407200D01*
X143810714Y-89407200D02*
X143905952Y-89454819D01*
X143905952Y-89454819D02*
X144001190Y-89454819D01*
X144001190Y-89454819D02*
X144096428Y-89407200D01*
X144096428Y-89407200D02*
X144144047Y-89359580D01*
X144144047Y-89359580D02*
X144191666Y-89264342D01*
X144191666Y-89264342D02*
X144239285Y-89073866D01*
X144239285Y-89073866D02*
X144239285Y-88835771D01*
X144239285Y-88835771D02*
X144191666Y-88645295D01*
X144191666Y-88645295D02*
X144144047Y-88550057D01*
X144144047Y-88550057D02*
X144096428Y-88502438D01*
X144096428Y-88502438D02*
X144001190Y-88454819D01*
X143239285Y-89454819D02*
X143239285Y-88454819D01*
X143144047Y-89073866D02*
X142858333Y-89454819D01*
X142858333Y-88788152D02*
X143239285Y-89169104D01*
M02*
